# xmcd
#
# Track frame offsets:
#	150
#	10505
#	26752
#	39302
#	53105
#	69255
#	82090
#	100115
#	113530
#	134125
#	150135
#	166170
#	180070
#	191527
#
# Disc length: 2761 seconds
# Revision: 40
# Processed by: cddbd v1.5.2PL0 Copyright (c) Steve Scherf et al.
# Submitted via: dBpowerAMP V12.0
#
DISCID=9a0ac70e
DTITLE=Garth Brooks - Sevens
DYEAR=1997
DGENRE=Country
TTITLE0=Longneck Bottle
TTITLE1=How You Ever Gonna Know
TTITLE2=She's Gonna Make It
TTITLE3=I Don't Have to Wonder
TTITLE4=Two Piña Coladas
TTITLE5=Cowboy Cadillac
TTITLE6=Fit for a King
TTITLE7=Do What You Gotta Do
TTITLE8=You Move Me
TTITLE9=In Another's Eyes
TTITLE10=When There's No One Around
TTITLE11=A Friend to Me
TTITLE12=Take the Keys to My Heart
TTITLE13=Belleau Wood
EXTD=
EXTT0=
EXTT1=
EXTT2=
EXTT3=
EXTT4=
EXTT5=
EXTT6=
EXTT7=
EXTT8=
EXTT9=
EXTT10=
EXTT11=
EXTT12=
EXTT13=
PLAYORDER=
